<svg width="175" height="56" viewBox="0 0 175 56" fill="none" xmlns="http://www.w3.org/2000/svg">
<path d="M140.829 15.9255C140.345 15.9255 140.103 15.6952 140.103 15.2346V10.191H137.823C137.363 10.191 137.132 9.96066 137.132 9.50005V5.45821C137.132 4.97457 137.363 4.73275 137.823 4.73275H140.103V0.725459C140.103 0.24182 140.345 0 140.829 0H145.769C146.252 0 146.494 0.24182 146.494 0.725459V15.2346C146.494 15.6952 146.252 15.9255 145.769 15.9255H140.829ZM121.725 22.6965C121.264 22.6965 121.034 22.4777 121.034 22.0401V18.3783C121.034 17.9177 121.264 17.6874 121.725 17.6874H145.803C146.264 17.6874 146.494 17.9177 146.494 18.3783V27.4983C146.494 27.9589 146.264 28.1892 145.803 28.1892H140.483C140.023 28.1892 139.792 27.9589 139.792 27.4983V22.6965H121.725ZM119.376 1.03637C119.376 0.575762 119.618 0.345458 120.101 0.345458H135.301C135.785 0.345458 136.027 0.575762 136.027 1.03637V4.45639C136.027 4.917 135.785 5.1473 135.301 5.1473H120.101C119.618 5.1473 119.376 4.917 119.376 4.45639V1.03637ZM135.647 10.0528C136.13 10.0528 136.372 10.2831 136.372 10.7437V14.1983C136.372 14.6589 136.13 14.8892 135.647 14.8892H120.447C120.216 14.8892 120.032 14.8316 119.894 14.7164C119.756 14.6013 119.698 14.417 119.721 14.1637L120.55 6.84004C120.596 6.40246 120.838 6.18367 121.276 6.18367H125.698C126.204 6.18367 126.446 6.42549 126.423 6.90913L126.078 10.0528H135.647Z" fill="#F15028"/>
<path d="M120.101 0.345703C119.618 0.345703 119.376 0.576007 119.376 1.03662V4.45663C119.376 4.91724 119.618 5.14755 120.101 5.14755H135.302C135.785 5.14755 136.027 4.91724 136.027 4.45663V1.03662C136.027 0.576007 135.785 0.345703 135.302 0.345703H120.101Z" fill="#FFA38C"/>
<path d="M98.5297 28.8805C95.3746 28.8805 92.9909 28.4775 91.3788 27.6714C89.7897 26.8654 88.9951 25.5296 88.9951 23.6641C88.9951 21.7987 89.7897 20.4744 91.3788 19.6914C92.9909 18.8853 95.3746 18.4823 98.5297 18.4823H106.13C109.285 18.4823 111.657 18.8853 113.246 19.6914C114.835 20.4744 115.63 21.7987 115.63 23.6641C115.63 25.5066 114.835 26.8308 113.246 27.6369C111.657 28.466 109.285 28.8805 106.13 28.8805H98.5297ZM96.0425 7.15132H114.628C115.112 7.15132 115.353 7.38162 115.353 7.84223V10.4677C115.353 10.9283 115.112 11.1586 114.628 11.1586H105.681V12.8513H115.215C115.699 12.8513 115.941 13.0817 115.941 13.5423V16.2368C115.941 16.7205 115.699 16.9623 115.215 16.9623H89.4097C88.9261 16.9623 88.6842 16.7205 88.6842 16.2368V13.5423C88.6842 13.0817 88.9261 12.8513 89.4097 12.8513H98.9788V11.1586H90.0661C89.8358 11.1586 89.6515 11.101 89.5133 10.9859C89.3751 10.8707 89.3176 10.6865 89.3406 10.4332L89.8588 6.04586C89.9048 5.60828 90.1467 5.38949 90.5842 5.38949H95.4206C95.9273 5.38949 96.1691 5.63131 96.1461 6.11495L96.0425 7.15132ZM88.9951 1.07128C88.9951 0.610675 89.237 0.380371 89.7206 0.380371H114.49C114.973 0.380371 115.215 0.610675 115.215 1.07128V3.66221C115.215 4.12282 114.973 4.35312 114.49 4.35312H89.7206C89.237 4.35312 88.9951 4.12282 88.9951 3.66221V1.07128ZM106.475 25.0805C107.443 25.0805 108.11 24.9654 108.479 24.735C108.87 24.4817 109.066 24.1363 109.066 23.6987C109.066 23.2611 108.87 22.9272 108.479 22.6969C108.11 22.4435 107.443 22.3169 106.475 22.3169H98.1843C97.217 22.3169 96.5376 22.432 96.1461 22.6623C95.7546 22.8926 95.5588 23.2381 95.5588 23.6987C95.5588 24.1823 95.7546 24.5393 96.1461 24.7696C96.5376 24.9769 97.217 25.0805 98.1843 25.0805H106.475Z" fill="#F15028"/>
<path d="M105.681 12.8519V11.1592H98.9788V12.8519H105.681Z" fill="#FFA38C"/>
<path d="M45.2257 12.8519V11.1592H38.5239V12.8519H45.2257Z" fill="#FFA38C"/>
<path d="M60.074 16.9274C60.074 16.4437 60.3043 16.2019 60.7649 16.2019H84.8087C85.2923 16.2019 85.5341 16.4322 85.5341 16.8928V27.3256C85.5341 27.7862 85.2923 28.0165 84.8087 28.0165H60.7649C60.3043 28.0165 60.074 27.7862 60.074 27.3256V16.9274ZM66.6031 20.4165V23.8365H78.9705V20.4165H66.6031ZM79.8341 14.4401C79.3505 14.4401 79.1087 14.2098 79.1087 13.7492V0.725459C79.1087 0.24182 79.3505 0 79.8341 0H84.7741C85.2578 0 85.4996 0.24182 85.4996 0.725459V13.7492C85.4996 14.2098 85.2578 14.4401 84.7741 14.4401H79.8341ZM65.7395 14.0601C65.5783 14.4516 65.2904 14.6474 64.8759 14.6474H59.2795C59.0031 14.6474 58.8073 14.5667 58.6922 14.4055C58.6001 14.2443 58.6116 14.037 58.7267 13.7837L64.5649 0.690914C64.7031 0.322427 64.968 0.138183 65.3595 0.138183H71.2323C71.4856 0.138183 71.6583 0.21879 71.7504 0.380003C71.8656 0.518185 71.8656 0.713944 71.7504 0.96728L65.7395 14.0601Z" fill="#F15028"/>
<path d="M69.8504 13.8524C69.9426 14.2209 70.2074 14.4051 70.645 14.4051H76.0687C76.6444 14.4051 76.8171 14.1403 76.5868 13.6106L72.3032 4.35235C72.188 4.05295 72.0268 3.90325 71.8195 3.90325C71.6353 3.90325 71.4856 4.05295 71.3704 4.35235L68.6759 10.3287C68.5607 10.6281 68.5492 10.9275 68.6413 11.2269L69.8504 13.8524Z" fill="#FFA38C"/>
<path d="M38.0749 28.8805C34.9197 28.8805 32.5361 28.4775 30.9239 27.6714C29.3348 26.8654 28.5403 25.5296 28.5403 23.6641C28.5403 21.7987 29.3348 20.4744 30.9239 19.6914C32.5361 18.8853 34.9197 18.4823 38.0749 18.4823H45.6749C48.8301 18.4823 51.2022 18.8853 52.7913 19.6914C54.3804 20.4744 55.175 21.7987 55.175 23.6641C55.175 25.5066 54.3804 26.8308 52.7913 27.6369C51.2022 28.466 48.8301 28.8805 45.6749 28.8805H38.0749ZM35.5876 7.15132H54.1731C54.6568 7.15132 54.8986 7.38162 54.8986 7.84223V10.4677C54.8986 10.9283 54.6568 11.1586 54.1731 11.1586H45.2258V12.8513H54.7604C55.2441 12.8513 55.4859 13.0817 55.4859 13.5423V16.2368C55.4859 16.7205 55.2441 16.9623 54.7604 16.9623H28.9548C28.4712 16.9623 28.2294 16.7205 28.2294 16.2368V13.5423C28.2294 13.0817 28.4712 12.8513 28.9548 12.8513H38.524V11.1586H29.6112C29.3809 11.1586 29.1966 11.101 29.0585 10.9859C28.9203 10.8707 28.8627 10.6865 28.8857 10.4332L29.4039 6.04586C29.45 5.60828 29.6918 5.38949 30.1294 5.38949H34.9658C35.4724 5.38949 35.7143 5.63131 35.6912 6.11495L35.5876 7.15132ZM28.5403 1.07128C28.5403 0.610675 28.7821 0.380371 29.2657 0.380371H54.035C54.5186 0.380371 54.7604 0.610675 54.7604 1.07128V3.66221C54.7604 4.12282 54.5186 4.35312 54.035 4.35312H29.2657C28.7821 4.35312 28.5403 4.12282 28.5403 3.66221V1.07128ZM46.0204 25.0805C46.9877 25.0805 47.6555 24.9654 48.024 24.735C48.4155 24.4817 48.6113 24.1363 48.6113 23.6987C48.6113 23.2611 48.4155 22.9272 48.024 22.6969C47.6555 22.4435 46.9877 22.3169 46.0204 22.3169H37.7294C36.7621 22.3169 36.0827 22.432 35.6912 22.6623C35.2997 22.8926 35.104 23.2381 35.104 23.6987C35.104 24.1823 35.2997 24.5393 35.6912 24.7696C36.0827 24.9769 36.7621 25.0805 37.7294 25.0805H46.0204Z" fill="#F15028"/>
<path d="M45.2258 12.8519V11.1592H38.5239V12.8519H45.2258Z" fill="#FFA38C"/>
<path d="M10.3359 40.8574V43.5371H12.0586V44.7812H10.3359V47.3789H8.81836V40.8574H10.3359ZM7 41.7188C6.98633 44.918 4.92188 46.873 1.20312 47.6113L0.560547 46.3945C3.65039 45.8271 5.12012 44.4873 5.30469 42.9219H1.14844V41.7188H7ZM10.377 47.8848V49.0059H3.82812V49.9082H10.2539V51.002H3.82812V51.9316H10.6641V53.0664H2.29688V47.8848H10.377ZM23.9531 47.2422V48.459H12.6875V47.2422H23.9531ZM22.6816 51.7402V52.9707H14.082V49.375H15.5996V51.7402H22.6816ZM18.3066 41.2539C21 41.2539 22.75 42.1973 22.7637 43.7559C22.75 45.3281 21 46.2852 18.3066 46.2852C15.6133 46.2852 13.8496 45.3281 13.8496 43.7559C13.8496 42.1973 15.6133 41.2539 18.3066 41.2539ZM18.3066 42.4707C16.5156 42.4707 15.4219 42.9355 15.4355 43.7559C15.4219 44.5898 16.5156 45.0547 18.3066 45.041C20.1113 45.0547 21.1914 44.5898 21.1914 43.7559C21.1914 42.9355 20.1113 42.4707 18.3066 42.4707ZM34.3984 42.0605V50.1543H28.5469V42.0605H34.3984ZM30.0371 43.25V48.9375H32.8809V43.25H30.0371ZM37.7891 40.8574V45.6016H39.6895V46.8867H37.7891V53.2168H36.2715V40.8574H37.7891ZM45.8281 41.1035C48.5625 41.1035 50.2715 42.0059 50.2852 43.5098C50.2715 44.9863 48.5625 45.875 45.8281 45.8613C43.1211 45.875 41.3711 44.9863 41.3711 43.5098C41.3711 42.0059 43.1211 41.1035 45.8281 41.1035ZM45.8281 42.293C44.0234 42.293 42.9434 42.7168 42.957 43.5098C42.9434 44.2617 44.0234 44.6719 45.8281 44.6855C47.6328 44.6719 48.7129 44.2617 48.7129 43.5098C48.7129 42.7168 47.6328 42.293 45.8281 42.293ZM50.1074 48.9102V53.0664H41.5352V48.9102H50.1074ZM43.0391 50.1133V51.8359H48.6309V50.1133H43.0391ZM51.4746 46.6953V47.9258H40.209V46.6953H51.4746ZM57.9277 41.5547C60.5391 41.5547 62.5352 42.9355 62.5352 45.041C62.5352 47.1738 60.5391 48.5547 57.9277 48.5547C55.3301 48.5547 53.334 47.1738 53.3477 45.041C53.334 42.9355 55.3301 41.5547 57.9277 41.5547ZM57.9277 42.7852C56.1367 42.7715 54.8105 43.6738 54.8105 45.041C54.8105 46.4355 56.1367 47.3105 57.9277 47.3105C59.7324 47.3105 61.0449 46.4355 61.0449 45.041C61.0449 43.6738 59.7324 42.7715 57.9277 42.7852ZM63.6016 50.4141V51.6582H52.3086V50.4141H63.6016ZM75.7012 50.5234V51.7812H64.4082V50.5234H69.2754V48.5137H65.748V44.4668H72.8574V42.9355H65.7207V41.7051H74.3613V45.6699H67.2656V47.2695H74.6484V48.5137H70.7793V50.5234H75.7012ZM89.5781 40.8574V43.5371H91.3008V44.7812H89.5781V47.3789H88.0605V40.8574H89.5781ZM86.2422 41.7188C86.2285 44.918 84.1641 46.873 80.4453 47.6113L79.8027 46.3945C82.8926 45.8271 84.3623 44.4873 84.5469 42.9219H80.3906V41.7188H86.2422ZM89.6191 47.8848V49.0059H83.0703V49.9082H89.4961V51.002H83.0703V51.9316H89.9062V53.0664H81.5391V47.8848H89.6191ZM103.195 47.2422V48.459H91.9297V47.2422H103.195ZM101.924 51.7402V52.9707H93.3242V49.375H94.8418V51.7402H101.924ZM97.5488 41.2539C100.242 41.2539 101.992 42.1973 102.006 43.7559C101.992 45.3281 100.242 46.2852 97.5488 46.2852C94.8555 46.2852 93.0918 45.3281 93.0918 43.7559C93.0918 42.1973 94.8555 41.2539 97.5488 41.2539ZM97.5488 42.4707C95.7578 42.4707 94.6641 42.9355 94.6777 43.7559C94.6641 44.5898 95.7578 45.0547 97.5488 45.041C99.3535 45.0547 100.434 44.5898 100.434 43.7559C100.434 42.9355 99.3535 42.4707 97.5488 42.4707ZM113.654 41.6914V42.9355H109.539V46.5996C111.645 46.5928 112.868 46.5176 114.242 46.2305L114.393 47.4473C112.848 47.7891 111.508 47.8301 108.979 47.8301H108.021V41.6914H113.654ZM117.701 48.8555V53.2168H116.184V50.0723H109.279V48.8555H117.701ZM117.701 40.8574V48.2949H116.184V45.2188H113.012V43.9883H116.184V40.8574H117.701ZM129.719 40.8574V47.2285H128.215V40.8574H129.719ZM129.746 47.748V50.9336H123.061V51.9316H130.115V53.1074H121.57V49.8262H128.229V48.9102H121.543V47.748H129.746ZM126.738 41.4727V42.7031H124.154C124.216 44.0703 125.262 45.3623 127.176 45.8887L126.438 47.0645C124.995 46.6475 123.963 45.7656 123.402 44.6445C122.849 45.8818 121.769 46.8662 120.244 47.3242L119.547 46.1211C121.461 45.5537 122.527 44.166 122.609 42.7031H119.943V41.4727H126.738ZM137.17 41.0488C139.986 41.0488 141.613 41.8008 141.627 43.168C141.613 44.5488 139.986 45.2871 137.17 45.3008C134.354 45.2871 132.713 44.5488 132.713 43.168C132.713 41.8008 134.354 41.0488 137.17 41.0488ZM137.17 42.1699C135.283 42.1699 134.299 42.5254 134.312 43.168C134.299 43.8516 135.283 44.166 137.17 44.166C139.084 44.166 140.055 43.8516 140.055 43.168C140.055 42.5254 139.084 42.1699 137.17 42.1699ZM142.816 45.957V47.1738H131.551V45.957H142.816ZM141.408 48.0078V51.0293H134.381V51.9453H141.75V53.1074H132.891V49.9492H139.918V49.1289H132.877V48.0078H141.408ZM156.652 40.8574V45.7793H158.553V47.0371H156.652V53.2168H155.148V40.8574H156.652ZM154.191 42.7578V43.9746H146.904V42.7578H149.83V41.0352H151.348V42.7578H154.191ZM150.596 44.7812C152.373 44.7812 153.699 45.9844 153.699 47.6934C153.699 49.4023 152.373 50.5918 150.596 50.5918C148.791 50.5918 147.465 49.4023 147.479 47.6934C147.465 45.9844 148.791 44.7812 150.596 44.7812ZM150.596 46.0254C149.625 46.0254 148.928 46.6816 148.928 47.6934C148.928 48.7051 149.625 49.3477 150.596 49.334C151.539 49.3477 152.236 48.7051 152.25 47.6934C152.236 46.6816 151.539 46.0254 150.596 46.0254ZM168.752 40.8574V45.5469H170.652V46.791H168.752V53.2305H167.234V40.8574H168.752ZM165.361 42.0332V43.2637H161.096V48.9375C163.017 48.9375 164.534 48.8418 166.236 48.541L166.414 49.8262C164.5 50.1543 162.832 50.209 160.604 50.209H159.578V42.0332H165.361ZM173.715 42.1016L173.564 49.0879H172.02L171.855 42.1016H173.715ZM172.799 52.1094C172.211 52.1094 171.732 51.6309 171.732 51.043C171.732 50.4688 172.211 49.9902 172.799 49.9902C173.359 49.9902 173.852 50.4688 173.852 51.043C173.852 51.6309 173.359 52.1094 172.799 52.1094Z" fill="#FF967B"/>
</svg>
